<svg width="140" height="39" viewBox="0 0 140 39" fill="none" xmlns="http://www.w3.org/2000/svg">
<path fill-rule="evenodd" clip-rule="evenodd" d="M49.6201 16.817C49.4663 16.9862 49.2214 17.1806 48.6825 17.1776L38.0818 17.104L38.1122 13.0075L48.6874 13.08C49.2615 13.0841 49.5006 13.2804 49.6446 13.4506C49.7906 13.6228 50.0345 14.0729 50.0257 15.1504C50.0179 16.2189 49.768 16.6539 49.6201 16.817ZM85.4968 22.9105L92.302 22.9578L92.8281 22.4624L86.0297 22.416L85.4968 22.9105ZM94.3251 21.1512L87.0731 27.8811L81.9002 27.8459L83.3306 27.8559L86.7038 27.8791L86.4059 27.8771L87.0722 27.8821L87.5366 27.4451L80.6628 27.3977L81.2849 26.8197L81.2095 26.8902L88.0754 26.9375L88.6015 26.4431L81.7434 26.3958L82.2901 25.8882L89.1413 25.9355L89.6342 25.4723L82.7898 25.425L82.4478 25.7422L83.3365 24.9175L90.173 24.9648L90.6981 24.4703L83.8694 24.423L83.5589 24.712L84.4161 23.9155L91.238 23.9618L91.7631 23.4684L84.9491 23.421L86.5764 21.9105L93.2905 21.9568V22.0304L93.8597 21.4926L87.0761 21.4463L86.6842 21.8098L90.61 18.1644L85.1627 12.9612L66.0237 12.8293C64.8431 14.9913 63.6616 17.1524 62.48 19.3144L68.9893 19.3598L66.1481 13.9743L71.6552 14.0125L79.0482 27.8277L73.4069 27.7885L71.326 23.9527L60.0268 23.8752L57.9145 27.6817C56.0324 27.6696 54.1504 27.6565 52.2683 27.6434C56.9818 19.1231 60.209 13.2663 60.8399 12.067C60.8801 11.9904 61.0163 11.7296 61.2269 11.4003C61.6884 10.6793 62.2508 9.80018 63.2511 9.15469C64.56 8.3098 66.0031 8.26046 66.7947 8.23327C67.1298 8.22219 67.3826 8.23327 67.4884 8.23831C68.1036 8.26549 72.5732 8.30074 81.5132 8.36922C82.101 8.37425 83.1239 8.3813 84.4161 8.38936C85.9994 8.53135 87.1231 9.00364 87.7776 9.34602C89.0875 10.0298 90.0633 10.9885 90.8069 11.7185C91.0175 11.927 91.0636 11.9814 91.4467 12.3801C92.1305 13.0911 93.0926 14.0669 94.3153 15.234L94.3202 15.23V15.237L94.8473 14.7295H94.8404L95.3558 14.2351H95.3616L102.193 14.2824L103.784 12.8031L96.8988 12.7558H96.8949L97.4093 12.2603H97.4132L97.9413 11.7528H97.9373L98.4507 11.2593H98.4527L105.393 11.3067L104.862 11.8001L97.9403 11.7528L97.4122 12.2603L104.315 12.3076L104.26 12.36L103.8 12.787L104.194 12.4214L103.784 12.8031L103.238 13.3106L96.3708 13.2633H96.3659L95.8829 13.7275H95.8887L95.6634 13.945L95.8897 13.7275L102.74 13.7749L102.764 13.7517L102.193 14.2824L101.66 14.7768L101.176 15.227L101.114 15.2854L97.9501 18.2269L103.392 23.42C113.891 23.4915 124.388 23.564 134.887 23.6365L134.998 8.72771C136.666 8.7398 138.333 8.75087 140 8.76296C139.981 11.5071 139.96 14.2512 139.939 16.9963C139.929 18.3104 139.921 19.6246 139.913 20.9398C139.907 21.6004 139.897 22.262 139.897 22.9226C139.893 23.2297 139.895 23.6657 139.885 24.272C139.879 24.8429 139.879 24.9809 139.867 25.2175C139.837 25.7724 139.826 26.9456 139.082 27.5196C138.124 28.2567 137.155 28.2033 136.763 28.2285L134.05 28.1872C130.902 28.148 127.194 28.1399 127.194 28.1399C121.52 28.1268 111.702 28.0342 109.742 28.0412H109.711C109.52 28.0422 108.646 28.0473 107.493 28.0382C106.142 28.0281 105.466 28.0231 105.068 27.9979C104.376 27.9556 102.637 27.8479 101.012 27.1057C100.296 26.7784 99.8253 26.43 97.8786 24.6023C96.9302 23.7131 95.7153 22.549 94.3192 21.1553L94.3251 21.1512ZM98.9837 10.7488H98.9817L99.4971 10.2533H99.499L100.026 9.7458H100.025L100.508 9.28157L101.036 8.77303L108.067 8.82237L108.369 8.54142L101.328 8.49308L100.509 9.28157L107.521 9.32991L107.4 9.44169L107.021 9.79313L100.027 9.7448L99.499 10.2523L106.476 10.3007L106.182 10.5746L105.674 11.0459L106.245 10.5142L105.944 10.7951L98.9847 10.7468L98.9837 10.7488ZM94.1135 20.98H94.1889L94.3261 20.981L94.1125 20.98H94.1135ZM55.0282 15.1857C55.0439 13.0428 54.4972 11.3832 53.4009 10.2523C52.2889 9.10534 50.7576 8.51825 48.852 8.50516L33.144 8.39741L33 27.8831L38.0035 27.9173L38.0495 21.6819L48.6512 21.7554C50.5861 21.7685 52.1478 21.2096 53.2931 20.0949C54.4296 18.9872 55.0145 17.3357 55.0302 15.1857H55.0282ZM127.451 8.67333L122.447 8.6391L122.346 22.415L127.348 22.4493L127.451 8.67333ZM114.894 8.58572L109.892 8.55149L109.79 22.3274L114.793 22.3617L114.894 8.58572Z" fill="#FFED00"/>
<path d="M12.4279 11.8665H9.09229V19.2014H12.4279V11.8665Z" fill="#EDE7E3"/>
<path fill-rule="evenodd" clip-rule="evenodd" d="M23.4834 13.7554C23.4622 17.0037 22.7417 20.2332 21.3419 23.3531C18.0586 30.6694 13.0278 33.1999 12.9779 33.2248L12.9032 33.261L12.8296 33.2236C12.7798 33.1987 7.77883 30.5909 4.59155 23.2223C3.23287 20.0812 2.55602 16.8417 2.57721 13.5922L2.62084 7.01106L2.71183 6.95499C2.74923 6.93256 6.47375 4.71351 13.1113 4.76584C19.7489 4.81817 23.4011 7.09454 23.4385 7.11697L23.5283 7.17428L23.4859 13.7554H23.4834ZM13.1101 3.42768C7.73644 3.38531 3.88852 4.50917 1.80314 5.33151L1.79192 7.00483L1.74954 13.586C1.72711 16.9713 2.43137 20.3441 3.8424 23.6085C7.17054 31.2998 12.4532 34.2216 12.5068 34.2478L12.5766 34.2826L12.9219 34.4583L13.2684 34.2876L13.3432 34.2515C13.5788 34.1331 18.7056 31.2836 22.0873 23.7518C23.542 20.5098 24.2911 17.1482 24.3123 13.7617L24.3559 7.18051L24.3671 5.51217C22.3117 4.65744 18.4987 3.46879 13.1126 3.42768H13.1101Z" fill="#B72209"/>
<path fill-rule="evenodd" clip-rule="evenodd" d="M24.4768 5.49712L24.4232 13.6793C24.4007 17.0933 23.6466 20.481 22.1807 23.7467C18.7105 31.4791 13.4004 34.3112 13.3468 34.3374L12.8657 34.5754L12.3783 34.3262C12.3309 34.3012 6.99346 31.3546 3.63915 23.6022C2.2169 20.3116 1.50765 16.9139 1.52884 13.5012L1.58244 5.31396C0.775956 5.64041 0.258662 5.91078 0.0492515 6.02665C0.048005 6.31696 0.000638288 13.5348 0.000638288 13.5348C-0.0267845 17.629 0.829556 21.7158 2.54348 25.6817C6.29293 34.3449 12.0044 37.7787 12.8034 38.2285C13.6073 37.7924 19.3587 34.447 23.2215 25.8437C24.9866 21.9052 25.8965 17.8321 25.9227 13.7379C25.9227 13.7379 25.9701 6.51881 25.9713 6.22725C25.7669 6.10889 25.2633 5.83353 24.4755 5.49712H24.4768Z" fill="#B72209"/>
<path fill-rule="evenodd" clip-rule="evenodd" d="M2.65708 6.87168L2.56608 6.92775L2.52245 13.5089C2.50126 16.7584 3.17936 19.9979 4.53679 23.1389C7.72531 30.5063 12.725 33.1141 12.7749 33.1403L12.8484 33.1777L12.9232 33.1415C12.9743 33.1178 18.0039 30.5873 21.2871 23.271C22.687 20.1511 23.4074 16.9228 23.4286 13.6734L23.471 7.09221L23.3813 7.0349C23.3439 7.01247 19.6916 4.73486 13.0541 4.68377C6.4165 4.63144 2.69073 6.8505 2.65458 6.87293L2.65708 6.87168Z" fill="#FFED00"/>
<path fill-rule="evenodd" clip-rule="evenodd" d="M4.93176 8.70316L4.9006 13.4465L4.14523 14.0957L6.96853 14.1169L6.16205 13.373L6.12341 11.1415L6.16953 11.0094C6.66314 11.0132 6.981 11.1652 7.11562 11.4655C7.25024 11.757 7.3537 12.2218 7.42599 12.836C7.49704 13.4577 7.62419 13.8826 7.78872 14.1243L9.26083 14.1355V14.077C8.98909 13.8764 8.79464 13.5512 8.67498 13.1101C8.55656 12.6778 8.44562 12.2541 8.34216 11.8554C8.18511 11.4231 7.9221 11.1216 7.56685 10.9534L7.61297 10.8961C7.85603 10.8973 8.07666 10.85 8.27485 10.7515C8.47305 10.6531 8.61016 10.5385 8.69492 10.3902C8.77968 10.2494 8.83328 10.1173 8.85697 10.0176C8.88065 9.90925 8.89685 9.79462 8.89685 9.6775C8.89935 9.37099 8.83952 9.11308 8.71237 8.89628C8.45684 8.53745 8.14771 8.29449 7.78374 8.1674C7.42849 8.04031 6.99595 7.97053 6.48738 7.9668C6.34279 7.9668 6.04737 7.9805 5.60736 8.00168C5.16735 8.02287 4.85573 8.03657 4.67374 8.03532C4.46931 8.03408 4.28733 8.02411 4.13525 8.00667L4.9355 8.70067L4.93176 8.70316ZM8.15768 8.61221C8.26364 8.74552 8.3459 8.88756 8.40449 9.04455C8.43441 9.11931 8.45684 9.20279 8.4718 9.28627C8.48551 9.36975 8.49299 9.4607 8.49299 9.54294C8.49299 9.69245 8.46806 9.84944 8.42194 10.0064C8.37582 10.1634 8.32097 10.3042 8.24494 10.4276C8.08414 10.5596 7.93207 10.6743 7.76504 10.7478C7.60549 10.8213 7.43098 10.8612 7.24774 10.8599C7.25522 10.9098 7.30758 10.9683 7.40605 11.0356C7.50452 11.1104 7.60923 11.2026 7.72266 11.3197C7.82861 11.4368 7.92459 11.686 8.02182 12.0685C8.08788 12.4012 8.16142 12.75 8.24245 13.1151C8.32347 13.4802 8.45061 13.763 8.63135 13.9723C8.56279 13.996 8.51044 14.0122 8.46432 14.0209C8.42693 14.0296 8.35837 14.0284 8.2599 14.0284C8.18386 14.0284 8.12278 14.0272 8.08539 14.0272C8.03927 14.0184 7.97071 14.0184 7.88096 14.001C7.74634 13.7593 7.64164 13.3768 7.56186 12.8535C7.48209 12.3389 7.40854 11.9489 7.32627 11.691C7.25273 11.4331 7.08695 11.2001 6.83765 10.9907C6.68682 10.9397 6.53475 10.9135 6.36772 10.9048C6.20817 10.8948 6.00375 10.8848 5.7532 10.8836C5.72952 11.1241 5.71207 11.2985 5.70459 11.4144C5.69586 11.5302 5.69462 11.7134 5.69337 11.9863C5.69337 12.0025 5.69212 12.218 5.69711 12.6329C5.70209 13.0478 5.70833 13.3543 5.70583 13.545L6.15083 13.9873L4.46557 13.9748L5.04519 13.4901L5.03024 8.70441C4.98536 8.62965 4.88689 8.52873 4.73606 8.39541C4.59272 8.26084 4.50297 8.16989 4.46433 8.11133C4.60892 8.11133 4.88938 8.10634 5.30696 8.08516C5.72453 8.06398 6.02743 8.05775 6.21066 8.059C6.51356 8.06149 6.79402 8.08018 7.05205 8.12379C7.31007 8.15867 7.55937 8.2272 7.79495 8.32065C7.93082 8.38793 8.05173 8.48013 8.15768 8.61345V8.61221ZM4.78343 8.24589L4.80587 8.2135L5.47399 8.25212C5.47025 8.74926 5.47399 9.3224 5.48521 9.96906C5.49642 10.6082 5.50764 11.2549 5.51761 11.8941C5.52883 12.5407 5.53257 13.1126 5.52883 13.6197C5.54379 13.6534 5.58118 13.6945 5.64226 13.7368C5.69462 13.7792 5.72578 13.8203 5.73326 13.8614C5.70209 13.8614 5.64974 13.8689 5.58119 13.8689C5.51263 13.8764 5.42163 13.8764 5.3082 13.8751C5.17109 13.8739 5.03522 13.8639 4.89935 13.8552L5.18231 13.5512C5.18605 12.9793 5.18231 12.4149 5.17857 11.8679C5.17483 11.3209 5.17109 10.7067 5.16735 10.0189C5.16361 9.3386 5.15987 8.86638 5.16112 8.62591L4.78468 8.24963L4.78343 8.24589ZM5.71705 9.31493C5.71955 8.91622 5.737 8.55987 5.76941 8.25337C5.85292 8.26209 5.95139 8.26334 6.04987 8.26458C6.11094 8.26458 6.20942 8.26583 6.33781 8.26707C6.47492 8.2596 6.57339 8.26084 6.63447 8.26084C6.93737 8.26334 7.18043 8.30694 7.3699 8.39915C7.55189 8.49259 7.68776 8.65083 7.75382 8.8913C7.82861 9.13177 7.86476 9.35604 7.86351 9.57159C7.86351 9.73731 7.83858 9.88682 7.80742 10.0114C7.77626 10.1348 7.72266 10.2506 7.6379 10.3752C7.52322 10.541 7.37115 10.6469 7.19539 10.6955C7.02088 10.744 6.80773 10.7665 6.54223 10.7652L6.25429 10.7627C6.17078 10.7627 6.09474 10.7615 6.01122 10.769C5.92771 10.769 5.85167 10.7764 5.77564 10.7926L5.72329 10.7179C5.72453 10.4861 5.72578 10.2531 5.71955 10.0214C5.72079 9.78092 5.71456 9.54792 5.71705 9.31617V9.31493ZM7.82362 8.71687C7.76379 8.60099 7.69648 8.49259 7.60549 8.38295C7.75631 8.42531 7.8847 8.51751 7.99065 8.65208C8.09661 8.77667 8.18635 8.93491 8.25366 9.11806C8.28358 9.25886 8.29729 9.4009 8.29605 9.53297C8.29605 9.7074 8.27112 9.8644 8.225 10.0139C8.17887 10.1622 8.10907 10.2868 8.00935 10.4014C7.94827 10.4587 7.89467 10.5086 7.8336 10.5572C7.77252 10.5983 7.689 10.6307 7.59053 10.6469C7.72764 10.5235 7.83484 10.3578 7.90465 10.1684C7.97445 9.9703 8.01309 9.77095 8.01558 9.54668C8.01558 9.40588 8.00187 9.25637 7.9732 9.09813C7.92833 8.96481 7.88346 8.84022 7.82362 8.71562V8.71687ZM7.56685 12C7.45591 11.5265 7.26146 11.1677 6.97476 10.926C7.30758 11.078 7.52696 11.2873 7.63166 11.5527C7.74385 11.8193 7.84731 12.218 7.94952 12.7413C8.06046 13.2733 8.18635 13.6559 8.35214 13.8888C8.26862 13.9287 8.20006 13.9449 8.14647 13.9449C8.02556 13.9437 7.93456 13.8602 7.88221 13.6945C7.82986 13.4864 7.78623 13.3456 7.76379 13.2621C7.69773 12.8385 7.63291 12.4236 7.56685 12ZM6.98349 8.37049C7.16548 8.40538 7.33874 8.51377 7.48956 8.69818C7.64787 8.88133 7.72141 9.17289 7.71892 9.55415C7.71892 9.67875 7.70271 9.8021 7.67778 9.93542C7.6541 10.0588 7.6005 10.1834 7.51574 10.2992C7.43846 10.4151 7.33999 10.4973 7.21783 10.5459C7.02088 10.6107 6.79153 10.6419 6.54223 10.6406C6.40512 10.6394 6.28421 10.6307 6.17825 10.6132L6.14086 10.5385V8.40662C6.16205 8.37423 6.20069 8.35803 6.24681 8.34931C6.28545 8.34931 6.32285 8.34931 6.36772 8.34931C6.42132 8.34931 6.45872 8.34183 6.48115 8.33311C6.5871 8.34308 6.75413 8.36052 6.98224 8.37049H6.98349Z" fill="#180000"/>
<path fill-rule="evenodd" clip-rule="evenodd" d="M8.79093 18.6146C8.57654 19.8431 7.46591 19.7484 6.81026 20.2879C6.28549 20.7202 6.02372 22.0335 6.53603 22.9081C7.24154 24.1728 7.27645 24.6849 6.6345 25.1895C6.9025 25.2057 6.991 25.1197 7.1144 25.0761C7.03837 25.8312 6.84641 25.4574 6.57218 26.1676C6.90748 25.7738 7.27146 25.8399 7.29764 25.5745C7.14556 26.1626 7.42353 26.4118 6.81898 26.7706C7.25027 26.666 7.5407 26.3844 7.72518 26.1252C7.75136 26.1252 7.76009 26.2822 7.64541 26.4379C7.96825 26.261 8.0742 25.8648 8.0742 25.8648C8.0742 25.8648 7.88972 26.6186 7.93709 26.7008C8.01936 26.1912 8.81462 25.8773 8.45064 24.2837C8.65756 24.5304 8.50549 24.7148 8.80589 24.9615C8.48305 24.3659 9.18981 24.0445 8.45812 22.8732C8.01811 22.1718 7.48586 21.7942 8.18763 20.78C8.08168 21.0816 8.11534 21.4267 8.39704 21.641C8.26865 20.5333 9.08137 20.6068 9.19106 19.3297C9.39174 19.2388 8.81836 18.6868 8.78844 18.6121L8.79093 18.6146Z" fill="#000003"/>
<path fill-rule="evenodd" clip-rule="evenodd" d="M11.1329 23.7193C11.4159 23.9099 11.9519 24.2799 12.3021 24.3759C12.6287 24.422 12.8631 24.6699 12.9079 24.9627L12.9192 25.3976C12.9192 25.3976 12.969 25.572 12.8332 25.886C12.8332 25.9794 12.802 26.099 12.802 26.099C12.802 26.099 12.6449 26.4728 12.4604 26.651C12.16 26.6049 12.0142 26.0953 11.9893 25.8897C11.9643 25.6792 12.175 25.5583 12.175 25.5583C12.175 25.5583 12.2461 25.4923 12.3508 25.4611C12.3533 25.4337 12.3969 25.3315 12.4255 25.278C12.2473 25.2182 12.1413 25.0674 12.008 24.9116C11.7674 24.721 10.4897 24.4008 10.4897 24.4008L11.1342 23.718L11.1329 23.7193Z" fill="#000003"/>
<path fill-rule="evenodd" clip-rule="evenodd" d="M9.80564 22.7238C9.79567 23.105 9.28336 23.4713 9.31702 23.6782C9.38184 24.0769 9.93652 24.2227 9.93652 24.2227L10.6744 23.3131C10.6744 23.3131 9.81312 22.4098 9.80564 22.7238Z" fill="#000003"/>
<path fill-rule="evenodd" clip-rule="evenodd" d="M15.5843 6.79774C15.6354 6.8264 15.6678 6.85007 15.684 6.85505C15.7164 6.86502 15.9096 6.89243 15.9807 6.9323C16.1215 7.00955 16.2511 7.24504 16.2511 7.24504C16.2511 7.24504 16.7635 7.56525 16.8881 7.72598C17.3418 7.91412 17.4927 8.17702 17.6111 8.22187C17.7856 8.31283 18.0573 8.38385 18.0099 8.75888C18.0361 8.89345 18.0037 8.98938 18.0037 8.98938C18.0037 8.98938 18.162 9.14513 17.8305 9.42298C17.7731 9.66345 17.5662 9.57249 17.5662 9.57249C17.5662 9.57249 17.2558 9.76936 17.0477 9.60613C16.9916 9.53387 16.9841 9.47282 16.9841 9.47282L16.8171 9.43793C16.8171 9.43793 16.3671 9.48403 16.1016 9.34947C15.6454 9.52764 15.5394 9.46659 15.3823 9.41799C15.9333 10.0422 16.7423 11.4464 16.9529 12.0034C17.5799 12.346 18.0536 12.9316 18.2268 13.3901C18.339 13.6879 18.3515 14.2598 18.3739 14.3121C18.693 14.2361 18.9473 14.3595 19.7438 13.8723C20.0081 13.7103 20.4518 14.0119 20.5004 14.1252C20.6425 14.4504 20.5902 14.7345 20.6089 14.8853C20.6276 15.0348 20.8146 15.6478 20.8856 15.7948C20.9554 15.9418 20.9978 16.0228 21.0352 16.14C21.2471 16.6271 21.0277 16.9224 21.0277 16.9224C21.0277 16.9224 20.9704 17.2538 20.8445 17.4607C20.8445 17.6314 20.5341 18.1073 20.3097 18.1671C20.1851 18.2008 19.9246 17.5068 19.9707 17.2626C20.0106 17.0545 20.1838 16.9448 20.2349 16.9274C20.286 16.91 20.3758 16.8963 20.4244 16.9025C20.4668 16.8427 20.5191 16.7156 20.5191 16.7156C20.5191 16.7156 20.4057 16.6084 20.3858 16.5137C20.3671 16.4203 20.3571 16.12 20.3808 16.054C20.4107 15.9007 20.2761 15.2765 20.0342 14.9663C20.0093 14.9177 19.8049 14.7258 19.5905 14.9102C18.8501 15.5544 19.0034 15.7599 18.1707 16.5798C18.3914 16.8477 19.1305 17.2426 19.2627 17.5018C19.3549 17.6837 19.4546 18.3814 19.3237 18.4861C19.1941 18.592 18.0361 19.7395 18.0361 19.7395C18.0361 19.7395 17.7943 20.1644 17.4715 20.1071C17.287 20.0473 16.8707 20.198 16.8707 20.198C16.8707 20.198 16.2948 20.3189 16.1277 20.0784C15.962 19.838 16.493 19.2823 16.5416 19.2324C16.5902 19.1813 16.8171 18.9733 17.019 19.2374C17.1573 19.281 17.191 19.433 17.191 19.433L17.3568 19.3969C17.3568 19.3969 17.3655 19.291 17.5051 19.2212C17.646 19.1502 17.7843 19.1377 17.7843 19.1377C17.7843 19.1377 18.5995 18.4151 18.6332 18.3353C18.6668 18.2556 18.5746 17.8594 18.4687 17.7971C17.4129 17.7223 17.0003 17.4868 16.9592 17.4557C16.837 17.4769 16.1103 18.8948 14.7429 19.8641C13.8217 20.5208 13.0763 20.7139 12.999 20.7749C12.7635 20.9269 12.7909 22.0059 12.6014 22.5155C12.579 22.6214 12.478 22.771 12.0754 23.1672C11.3599 24.0867 10.2169 25.3003 10.2169 25.3003C10.2169 25.3003 9.995 25.8722 9.96758 26.069C9.98254 26.2696 10.3739 27.2352 10.3739 27.2352C10.3739 27.2352 10.6332 27.3922 10.8127 27.7037C11.077 27.8246 11.4148 28.0862 11.4148 28.0862C11.4148 28.0862 11.9507 28.4002 11.8411 28.607C11.7014 28.8699 11.0545 28.992 11.0545 28.992C11.0545 28.992 10.88 28.9945 10.7205 28.7628C10.5946 28.5796 10.6881 28.4824 10.5709 28.3628C10.5248 28.3167 10.3702 28.2146 10.3004 28.1996C10.1845 28.2158 10.1072 28.2108 10.0474 28.1286C9.84792 27.8308 9.89528 27.4583 9.36802 26.4092C9.07634 26.0964 8.91305 25.7139 8.82081 25.5308C8.81083 25.5071 8.7535 25.3314 8.83576 25.1433C8.91803 24.9551 9.21221 24.7981 9.21221 24.7981C9.21221 24.7981 9.63477 23.9534 9.80304 23.8051C9.72825 23.5796 9.78933 23.3777 9.78933 23.3777C9.78933 23.3777 8.94795 22.7959 8.39201 21.5798C7.93206 20.3314 8.70488 18.1671 9.75942 17.2862C10.2082 16.9162 10.7803 16.6957 11.1206 16.5337C12.1041 15.8721 12.4356 15.3014 12.8482 14.4741C12.5329 14.6336 12.1402 14.0455 11.6977 14.2561C12.0904 13.8711 12.6588 14.3483 12.7448 13.7465C12.053 13.6393 11.9233 14.2324 11.345 13.5334C11.5656 13.6144 11.6728 13.6904 11.8772 13.6082C11.7077 13.5608 11.6429 13.4138 11.6429 13.4138C11.6429 13.4138 11.9607 13.6057 12.0555 13.1384C11.8186 13.2755 11.6242 13.3839 10.9872 12.9353C12.0467 13.2531 11.4858 12.5267 12.3696 12.1865C11.9258 12.0146 11.5444 12.3572 11.5444 12.3572C11.5444 12.3572 11.5431 12.1404 11.7575 11.8451C11.3724 11.9074 11.1879 12.1703 11.1879 12.1703C11.1879 12.1703 11.2689 11.5149 11.8049 11.2545C11.5282 11.0851 11.1243 11.343 11.1243 11.343C11.1243 11.343 11.3923 10.7287 11.9545 10.7736C12.6288 10.8259 12.6002 10.6453 12.6002 10.6453C12.6002 10.6453 12.1963 10.7823 11.9944 10.558C12.5914 10.5119 12.6874 9.6946 12.6874 9.6946C12.6874 9.6946 12.3521 9.69086 12.1976 10.0771C12.0555 9.62607 12.2736 9.41675 12.2935 9.35819C11.9732 9.51269 11.8909 9.11273 11.6279 9.17877C12.0293 8.71403 11.9844 9.50272 12.8694 8.38758C12.5777 8.46733 12.4082 8.25551 12.4082 8.25551C12.4082 8.25551 12.9006 8.36765 13.4216 7.33724C13.6659 6.7803 14.2593 6.80272 14.2593 6.80272C14.2593 6.80272 14.2655 6.61832 14.2942 6.23207C14.3178 6.08754 14.2543 5.76733 14.2605 5.70877C14.2742 5.56548 14.6058 6.03646 14.6058 6.03646C14.6058 6.03646 14.5995 5.70503 14.6482 5.69008C14.713 5.67139 14.9174 5.99285 14.9585 6.15607C14.9997 6.31929 14.9884 6.43143 14.9984 6.43143C15.8199 6.17102 15.5893 6.7317 15.5855 6.79525L15.5843 6.79774Z" fill="#000003"/>
<path fill-rule="evenodd" clip-rule="evenodd" d="M15.5293 7.27386C15.5293 7.27386 15.6714 7.22278 15.6988 7.07949C15.7051 7.01096 15.806 7.00598 15.7823 7.077C15.6963 7.29255 15.5305 7.27386 15.5305 7.27386H15.5293Z" fill="#000003"/>
<path fill-rule="evenodd" clip-rule="evenodd" d="M15.5644 6.9165C15.5183 7.08346 15.3625 7.26039 15.3625 7.26039C15.3625 7.26039 15.3313 7.35508 15.4024 7.29154C15.4734 7.22799 15.4921 7.35384 15.547 7.36007C15.603 7.36505 15.8785 7.24668 15.8972 7.05979C16.0119 7.03612 16.1291 7.4099 16.1291 7.4099C16.1291 7.4099 16.169 7.41613 16.1814 7.42859C16.1939 7.44105 16.1901 7.5046 16.1901 7.5046C16.1901 7.5046 16.1627 7.54821 16.0742 7.50958C15.9733 7.613 15.8648 7.57562 15.8648 7.57562C15.8648 7.57562 15.8573 7.62919 15.9147 7.64165C15.962 7.65162 16.0194 7.64041 16.0368 7.66906C15.9733 7.66034 15.9159 7.72638 15.8436 7.72513C15.7539 7.72513 15.6554 7.689 15.5968 7.50335C15.5208 7.5345 15.4846 7.46348 15.4846 7.46348L15.4011 7.49463C15.4011 7.49463 15.1992 7.57313 15.4983 7.64788C15.7975 7.72264 16.1091 8.12633 16.2226 8.17617C16.336 8.22601 16.5005 8.11138 16.5192 8.17866C16.4195 8.20358 16.245 8.31696 16.1989 8.40543C16.1602 8.47894 15.9807 8.7219 16.1029 8.99352C16.1752 8.96362 16.2026 8.77174 16.2226 8.82905C16.5977 9.09818 16.7548 8.89011 16.8483 8.94617C16.9418 9.00224 16.9817 9.2452 17.0938 9.21904C17.3357 9.16297 17.2559 9.22278 17.5064 9.34364C17.6136 9.39472 17.6136 9.25766 17.6136 9.25766C17.6136 9.25766 17.6074 9.39721 17.7271 9.14054C17.7345 9.12559 17.9464 9.04585 17.9091 8.94617C17.9066 8.93994 17.9103 8.77922 17.9153 8.77299C17.9826 8.67456 17.9552 8.62596 17.9514 8.60976C17.9365 8.52753 17.9165 8.50884 17.8854 8.46897C17.7881 8.35061 17.6074 8.3207 17.5376 8.30326C17.4678 8.28582 17.2671 7.94318 16.8034 7.77373C16.7411 7.65536 16.1827 7.30524 16.1827 7.30524C16.1827 7.30524 16.0655 7.08845 15.9969 7.03861C15.9284 6.98877 15.6803 6.9651 15.6803 6.9651C15.6803 6.9651 15.5931 6.92523 15.5644 6.92149V6.9165Z" fill="#EFDA30"/>
<path fill-rule="evenodd" clip-rule="evenodd" d="M16.7148 8.3368C16.7198 8.30441 16.9105 8.28821 17.1337 8.5237C17.1636 8.57852 17.0813 8.57229 16.9891 8.57727C16.8968 8.58226 16.8981 8.41654 16.7148 8.3368Z" fill="#000003"/>
<path fill-rule="evenodd" clip-rule="evenodd" d="M8.75098 21.5178C8.75098 21.5178 9.83542 23.4304 10.536 23.555C10.3727 23.6933 10.1259 23.8515 9.95758 24.2365C9.85786 24.4645 9.82171 24.3511 9.46272 24.7237C9.65842 24.2938 9.93888 23.9562 9.93888 23.9562C9.93888 23.9562 9.86659 23.545 9.97628 23.3868C8.99404 22.5432 8.75222 21.5178 8.75222 21.5178H8.75098Z" fill="#EFDA30"/>
<path fill-rule="evenodd" clip-rule="evenodd" d="M14.8486 8.73423C14.8336 8.71679 14.5382 8.2807 14.7501 7.725C14.8186 7.58795 14.8585 7.77235 14.8311 7.83714C14.7738 7.97295 14.7102 8.25827 14.8486 8.73423Z" fill="#EFDA30"/>
<path fill-rule="evenodd" clip-rule="evenodd" d="M18.2141 14.4434C18.2141 14.4434 17.9835 14.6128 17.9024 14.5954C18.1779 13.8042 17.4412 13.2934 17.6307 13.2522C17.9535 12.9894 17.6668 12.7439 17.6668 12.7439C17.6668 12.7439 17.8837 12.8685 18.0981 13.3744C18.2253 13.6422 18.2153 14.4434 18.2153 14.4434H18.2141Z" fill="#EFDA30"/>
<path fill-rule="evenodd" clip-rule="evenodd" d="M12.5455 19.5328C12.5891 19.478 12.7723 19.9402 13.2772 20.1558C13.3894 20.2031 12.7848 20.2667 12.73 20.4149C12.5829 20.3925 12.5019 19.5889 12.5455 19.5328Z" fill="#EFDA30"/>
<path fill-rule="evenodd" clip-rule="evenodd" d="M11.2478 17.4509C11.2478 17.4509 11.6878 17.1145 11.9172 17.3674C12.1229 17.5942 12.2313 18.8302 12.2313 18.8302C12.2313 18.8302 11.9708 18.039 11.8337 17.7088C11.7178 17.4285 11.2466 17.4509 11.2466 17.4509H11.2478Z" fill="#EFDA30"/>
<path fill-rule="evenodd" clip-rule="evenodd" d="M15.5715 7.66992C15.8569 7.74219 16.1486 8.10975 16.2496 8.1546C16.3518 8.19945 16.4814 8.14837 16.4814 8.14837C16.4814 8.14837 16.5126 8.15335 16.5014 8.17204C16.4914 8.19073 16.262 8.27297 16.262 8.27297C16.262 8.27297 15.999 8.60439 16.0239 8.79627C15.9267 8.55331 16.1972 8.30287 16.1798 8.2331C16.0065 7.94777 15.5403 7.68861 15.5702 7.67117L15.5715 7.66992Z" fill="#EFDA30"/>
<path fill-rule="evenodd" clip-rule="evenodd" d="M19.4759 14.5628C19.4971 14.584 19.6529 14.4382 20.0319 14.6126C20.0418 14.5753 19.9309 14.3796 19.7639 14.3796C19.6243 14.4046 19.4547 14.5416 19.4759 14.5628Z" fill="#EFDA30"/>
<path fill-rule="evenodd" clip-rule="evenodd" d="M17.9738 14.2627C18 14.2814 18.0099 14.4272 18.0137 14.5119C18.177 14.3873 18.3802 14.3599 18.3814 14.3698C18.3839 14.4446 18.3752 14.4409 18.3752 14.4409C18.3752 14.4409 17.9688 14.5904 17.7769 14.7823C17.9152 14.6091 17.9377 14.3898 17.9738 14.2639V14.2627Z" fill="#EFDA30"/>
<path fill-rule="evenodd" clip-rule="evenodd" d="M17.9503 16.0852C18.1634 16.13 18.7044 15.1719 18.9475 15.147C18.4925 15.5694 18.2806 16.1437 17.969 16.1338C17.9116 16.1313 17.9029 16.1076 17.9515 16.0852H17.9503Z" fill="#EFDA30"/>
<path fill-rule="evenodd" clip-rule="evenodd" d="M17.5823 14.5778C17.5537 14.7697 17.505 15.3353 17.6322 15.3378C17.5599 15.1571 17.6671 14.4345 17.6671 14.4345C17.6671 14.4345 17.611 14.3846 17.5823 14.5778Z" fill="#EFDA30"/>
<path fill-rule="evenodd" clip-rule="evenodd" d="M12.9505 19.1291C12.9505 19.1291 13.1499 19.5939 13.5961 19.6848C14.0436 19.7746 15.1505 18.8401 15.1505 18.8401C15.1505 18.8401 14.3839 19.2874 13.9364 19.326C13.489 19.3659 12.9492 19.1291 12.9492 19.1291H12.9505Z" fill="#EFDA30"/>
<path fill-rule="evenodd" clip-rule="evenodd" d="M14.7841 6.82058C14.7841 6.82058 14.6258 6.83678 14.5111 6.55519C14.4338 6.40692 14.4824 6.17642 14.4238 5.95215C14.7342 6.19013 14.7828 6.81934 14.7828 6.81934L14.7841 6.82058Z" fill="#EFDA30"/>
<path fill-rule="evenodd" clip-rule="evenodd" d="M14.9773 6.54865C15.2465 6.45894 15.4048 6.38917 15.4609 6.51252C15.5743 6.76296 15.3886 7.14048 15.2939 7.23518C15.1892 7.36227 14.9548 7.43329 14.9324 7.63762C14.885 7.48686 15.0034 7.38345 14.9498 7.40089C14.8302 7.57906 14.6195 7.45447 14.4724 7.56785C14.4812 7.53545 14.5535 7.45696 14.6906 7.43453C14.4812 7.40712 14.283 7.55913 14.2119 7.61146C14.3229 7.23019 14.5746 7.3523 14.6382 7.19032C14.5834 7.24639 14.4375 7.20652 14.3515 7.25013C14.4238 6.95608 15.4061 6.78289 14.9785 6.54616L14.9773 6.54865Z" fill="#EFDA30"/>
<path fill-rule="evenodd" clip-rule="evenodd" d="M14.91 7.04846C14.9287 7.02728 15.0483 6.89271 15.2054 6.96872C14.738 7.09705 14.8414 7.23535 14.5298 7.345C14.7641 7.35372 14.8289 7.21043 15.0795 7.19922C15.5731 7.17804 15.7676 6.31708 15.2914 6.52266C15.6666 6.64103 15.0533 6.61486 14.91 7.04846Z" fill="#000003"/>
<path fill-rule="evenodd" clip-rule="evenodd" d="M15.6464 7.50439C15.715 7.63647 15.8621 7.66388 15.8621 7.66388C15.8621 7.66388 15.8733 7.69004 15.8446 7.6888C15.72 7.66637 15.6327 7.50938 15.6464 7.50564V7.50439Z" fill="#EFDA30"/>
<path fill-rule="evenodd" clip-rule="evenodd" d="M15.9917 7.64032C15.9917 7.64032 16.0565 7.59297 16.0652 7.57802C16.074 7.56307 16.0939 7.57055 16.0939 7.58924C16.0939 7.60917 15.9917 7.63907 15.9917 7.63907V7.64032Z" fill="#180000"/>
<path fill-rule="evenodd" clip-rule="evenodd" d="M8.90204 20.0999C8.90204 20.0999 8.78113 21.3608 9.12391 21.8903C9.3246 22.1993 10.0987 22.3987 10.697 22.7662C9.89549 21.752 9.43803 21.9713 9.24981 21.6673C8.92073 21.1328 8.90204 20.0999 8.90204 20.0999Z" fill="#EFDA30"/>
<path fill-rule="evenodd" clip-rule="evenodd" d="M9.7793 22.6019C9.8329 22.5832 10.3153 23.4205 10.5347 23.4105C10.7142 23.4703 10.5372 23.5226 10.415 23.5326C10.3302 23.5388 9.90769 22.947 9.78054 22.6019H9.7793Z" fill="#EFDA30"/>
<path fill-rule="evenodd" clip-rule="evenodd" d="M18.0312 16.6907C17.8841 16.7978 17.8691 16.8987 17.7632 16.9274C18.3328 17.371 18.3453 16.9075 18.996 17.518C19.1568 17.6688 19.2253 17.9665 19.2689 18.3191C19.3574 18.2406 19.3188 17.6451 19.0957 17.4644C18.7579 17.1915 18.4051 17.0645 18.0324 16.6907H18.0312Z" fill="#EFDA30"/>
<path fill-rule="evenodd" clip-rule="evenodd" d="M14.4824 15.1548C15.1954 15.0489 15.9047 15.6121 15.9047 15.6121C15.9047 15.6121 16.326 16.6712 17.0801 16.3721C16.2936 16.2176 16.0081 15.2171 15.9869 14.9954C15.9184 15.1561 15.9109 15.2956 15.9109 15.2956C15.9109 15.2956 15.0334 14.9206 14.4837 15.1536L14.4824 15.1548Z" fill="#EFDA30"/>
<path fill-rule="evenodd" clip-rule="evenodd" d="M13.5088 13.1336C13.5936 12.8433 13.8815 12.5717 13.8815 12.5717C13.8815 12.5717 13.5749 11.7256 13.5263 11.3494C13.4415 11.4702 13.6248 12.4919 13.6248 12.4919C13.6248 12.4919 13.4877 12.8919 13.5088 13.1323V13.1336Z" fill="#EFDA30"/>
<path fill-rule="evenodd" clip-rule="evenodd" d="M9.59499 24.5005C9.59499 24.5005 9.48779 24.898 9.5576 25.0225C9.52893 25.0412 9.42298 24.8182 9.40802 24.6749C9.39306 24.5316 9.59499 24.5005 9.59499 24.5005Z" fill="#EFDA30"/>
<path fill-rule="evenodd" clip-rule="evenodd" d="M16.0278 7.37109C16.0428 7.38854 16.0378 7.44585 16.0378 7.44585C16.0378 7.44585 16.0141 7.46329 15.9805 7.47575C16.0204 7.4309 16.0253 7.41595 16.0266 7.37109H16.0278Z" fill="#EFDA30"/>
<path fill-rule="evenodd" clip-rule="evenodd" d="M15.8707 7.29761C15.8707 7.29761 15.8957 7.38358 15.852 7.41597C15.8084 7.44837 15.7448 7.40476 15.7349 7.38981C15.8084 7.36489 15.8695 7.29761 15.8695 7.29761H15.8707Z" fill="#EFDA30"/>
<path fill-rule="evenodd" clip-rule="evenodd" d="M16.1936 9.03702C16.16 9.07814 16.1587 9.06693 16.2024 9.12549C16.5065 9.28123 16.8967 9.20274 16.8967 9.20274C16.8967 9.20274 16.9241 9.15913 16.8368 9.1205C16.3382 9.17034 16.226 8.99715 16.1924 9.03702H16.1936Z" fill="#EFDA30"/>
<path fill-rule="evenodd" clip-rule="evenodd" d="M16.215 12.8123C16.1065 12.7986 15.042 12.5469 15.0869 12.4534C15.1318 12.36 15.8335 12.4734 15.7862 12.3463C15.7375 12.2192 14.3776 11.9762 14.349 11.9202C14.3215 11.8641 14.7042 11.8654 14.6755 11.8093C14.6481 11.7532 14.2966 11.7819 14.1283 11.6947C14.0697 11.7408 14.2667 11.8442 14.2667 11.8442C14.2667 11.8442 14.0286 11.8467 14.0485 11.9177C14.0685 11.9887 15.2003 12.3102 15.2003 12.3102C15.2003 12.3102 14.3539 12.3625 14.3165 12.4809C14.2779 12.598 15.0981 12.5805 15.1542 12.6927C15.2103 12.8048 14.3003 12.7612 14.3003 12.7612C14.3003 12.7612 14.0573 12.7911 14.0872 12.978C14.7391 13.6309 16.8307 13.2073 17.1349 13.3904C17.439 13.5748 17.6409 14.4582 17.8616 14.3448C17.8641 13.6384 17.4976 13.5275 17.4714 13.3543C17.4452 13.1798 17.7793 13.3019 17.7805 13.0141C17.6733 12.7238 17.2932 12.3961 16.9566 12.2616C16.4892 12.1332 15.3337 11.5202 14.7802 9.95654C14.8077 10.4313 14.9734 11.6423 16.4593 12.4771C16.6313 12.6329 16.4406 12.8023 16.2125 12.8123H16.215Z" fill="#EFDA30"/>
<path fill-rule="evenodd" clip-rule="evenodd" d="M18.227 14.5078C17.8119 14.7283 17.8231 15.0573 17.9814 15.0099C18.5822 14.8318 18.5037 14.5975 19.0372 14.4156C19.4049 14.382 19.6193 14.2761 19.8387 14.1228C19.9409 14.0817 20.2987 14.3521 20.2987 14.3521C20.2987 14.3521 20.4495 14.3795 20.4657 14.2686C20.4819 14.1577 20.2027 13.9534 19.9708 13.9396C19.7402 13.9272 19.6442 14.0879 19.4423 14.1652C19.2416 14.2412 19.1506 14.3159 18.8826 14.362C18.7455 14.3857 18.4052 14.4069 18.2245 14.5078H18.227Z" fill="#EFDA30"/>
<path fill-rule="evenodd" clip-rule="evenodd" d="M17.5922 14.9065C17.5922 14.9065 17.4476 15.4261 17.6719 16.069C17.5149 16.3381 16.8779 16.1363 16.8779 16.1363C16.8779 16.1363 17.4226 16.0752 17.4214 15.9058C17.3092 15.3426 17.5909 14.9065 17.5909 14.9065H17.5922Z" fill="#EFDA30"/>
<path fill-rule="evenodd" clip-rule="evenodd" d="M14.0473 7.37001C14.1059 7.33512 13.9401 7.74878 13.9401 7.74878C13.9401 7.74878 12.7211 8.94864 13.3343 11.3172C13.4041 11.5888 13.3767 12.3078 13.3082 12.1395C12.574 8.84024 13.6335 7.61795 14.0473 7.36876V7.37001Z" fill="#EFDA30"/>
<path fill-rule="evenodd" clip-rule="evenodd" d="M15.476 9.93537C15.3688 9.84442 15.208 9.75222 15.213 9.90423C15.6717 10.2867 16.4807 11.6772 16.5455 11.7146C16.6103 11.752 16.2065 10.7054 15.476 9.93537Z" fill="#EFDA30"/>
<path fill-rule="evenodd" clip-rule="evenodd" d="M17.9439 15.6755C18.152 15.526 18.4026 15.6494 18.7778 15.3267C18.8276 15.4376 18.0635 15.982 17.9102 15.9459C17.7569 15.9098 17.8342 15.7627 17.9439 15.6768V15.6755Z" fill="#EFDA30"/>
<path fill-rule="evenodd" clip-rule="evenodd" d="M13.4392 13.5076C13.4093 13.7443 13.4317 14.0857 13.4915 14.158C12.6452 15.1522 12.7062 16.6898 11.2715 16.9427C10.6221 16.9664 9.32574 17.7476 8.791 19.3137C8.77479 19.2153 9.17741 17.9008 9.93777 17.3813C10.217 17.142 10.4725 16.9502 11.173 16.7645C12.5093 15.8039 13.0752 14.5031 13.0752 14.5031C13.0752 14.5031 13.221 13.7867 13.4367 13.5076H13.4392Z" fill="#EFDA30"/>
<path fill-rule="evenodd" clip-rule="evenodd" d="M11.9008 19.3213C11.7773 19.335 11.5792 19.7487 11.4844 20.7504C11.3847 21.8057 11.9257 22.02 11.9481 22.1995C11.998 22.5982 11.7325 23.0903 11.821 23.0878C11.917 23.1289 12.1089 22.81 12.2361 22.5446C12.3557 22.2966 12.1862 21.6612 12.2685 21.1491C12.2373 20.7305 11.9207 20.9074 11.8995 19.3213H11.9008Z" fill="#EFDA30"/>
<path fill-rule="evenodd" clip-rule="evenodd" d="M17.1013 9.13651C17.0702 9.13651 17.0116 9.06799 17.0789 9.01067C17.317 8.91473 17.818 9.31593 17.818 9.31593C17.818 9.31593 17.8131 9.34833 17.7732 9.37698C17.2995 9.03933 17.1337 9.13776 17.1013 9.13651Z" fill="#000003"/>
<path fill-rule="evenodd" clip-rule="evenodd" d="M16.8843 8.05396C17.1273 8.07015 17.1311 8.11376 17.1311 8.11376C17.1311 8.11376 17.1959 8.24459 17.3841 8.41902C17.5175 8.61838 17.4751 8.99092 17.9052 9.03577C17.96 8.96849 17.8378 9.19152 17.8266 9.20024C17.6571 9.25755 17.6097 8.92613 17.3991 8.91865C17.353 8.84389 17.3131 8.71681 17.3131 8.70185C17.0725 8.50499 17.2881 8.33554 16.8843 8.05396Z" fill="#000003"/>
<path fill-rule="evenodd" clip-rule="evenodd" d="M17.7878 8.9273C17.6893 8.87124 17.5024 8.61083 17.6121 8.44636C17.6906 8.37784 17.7404 8.4825 17.7404 8.4825C17.7404 8.4825 17.8913 8.53358 17.8813 8.63326C17.8963 8.72048 17.7691 8.71051 17.7616 8.76907C17.7542 8.82638 17.8688 8.91485 17.7878 8.92855V8.9273Z" fill="#000003"/>
<path fill-rule="evenodd" clip-rule="evenodd" d="M17.6624 8.3244C17.6624 8.3244 17.4517 8.31318 17.4131 8.24216C17.4829 8.23718 17.6088 8.25338 17.6088 8.25338L17.6611 8.32315L17.6624 8.3244Z" fill="#EFDA30"/>
<path fill-rule="evenodd" clip-rule="evenodd" d="M16.4508 8.46261C16.533 8.48379 16.7387 8.67193 16.801 8.73173C16.9681 8.89495 16.8796 8.90118 16.7549 8.86505C16.4919 8.84387 16.2264 8.62333 16.2638 8.57973C16.3174 8.51743 16.3673 8.44142 16.4495 8.46261H16.4508Z" fill="#000003"/>
<path fill-rule="evenodd" clip-rule="evenodd" d="M17.025 8.63701C17.0636 8.62456 17.2593 8.83139 17.2394 8.86503C17.2194 8.89867 17.1471 8.79151 17.0449 8.85257C17.015 8.8102 16.9876 8.65072 17.025 8.63701Z" fill="#000003"/>
<path fill-rule="evenodd" clip-rule="evenodd" d="M16.0569 7.88193C16.0569 7.88193 16.3399 8.0788 16.7525 7.93302C16.816 7.90436 16.4209 7.79721 16.2937 7.81465C16.2202 7.82462 16.0557 7.88193 16.0557 7.88193H16.0569Z" fill="#000003"/>
<path fill-rule="evenodd" clip-rule="evenodd" d="M15.5545 7.23409C15.5831 7.24904 15.719 7.13442 15.7277 7.0472C15.734 6.98864 15.618 7.03723 15.618 7.03723C15.618 7.03723 15.6504 7.16432 15.5532 7.23409H15.5545Z" fill="#180000"/>
<path fill-rule="evenodd" clip-rule="evenodd" d="M9.83791 25.5598L9.64595 26.2301L10.076 27.3515C10.076 27.3515 10.3103 27.4288 10.4824 27.7963C10.678 27.8586 10.9809 28.0592 10.9809 28.0592C10.9809 28.0592 10.7553 28.0592 10.7329 28.1801C10.6008 28.3022 10.5135 28.0542 10.3153 27.9832C10.263 27.7415 9.96256 27.4275 9.96256 27.4275C9.96256 27.4275 9.6821 26.6812 9.50635 26.2414C9.59859 26.0208 9.84041 25.5598 9.84041 25.5598H9.83791Z" fill="#EFDA30"/>
<path fill-rule="evenodd" clip-rule="evenodd" d="M7.0669 24.9479C8.11894 23.7468 5.62595 22.9631 6.74406 20.6892C7.14792 19.8681 8.28098 20.288 8.71352 19.3049C8.5764 20.2257 7.96313 20.0077 7.6727 20.9259C7.60414 20.7801 7.62657 20.6443 7.67893 20.5409C7.56799 20.6418 7.12549 20.9683 7.33739 21.4393C6.89738 20.7901 7.52187 20.3129 7.52187 20.3129C7.52187 20.3129 7.0133 20.5696 6.87369 20.9957C6.41 22.4161 8.02919 22.3177 8.14761 23.5898C7.99678 23.1624 7.60663 22.9045 7.22147 22.8646C7.45207 23.0279 8.13514 23.3219 7.84222 24.2576C7.86466 23.9711 7.8123 23.8477 7.62658 23.7393C7.70884 23.7842 8.01174 24.7859 7.24515 25.4488C7.48447 25.1535 7.47201 24.7884 7.44209 24.5903C7.34736 24.8619 7.26883 24.8694 7.0669 24.9491V24.9479Z" fill="#EFDA30"/>
<path fill-rule="evenodd" clip-rule="evenodd" d="M12.2099 12.8048C12.5576 12.3077 12.8668 13.0129 13.2295 12.7712C12.8256 12.5693 12.8668 11.6261 12.0067 11.8803C12.2211 11.6374 12.519 11.6635 12.519 11.6635C12.519 11.6635 12.2697 11.3857 11.9718 11.4878C11.9842 11.448 12.3195 11.3109 12.6087 11.4991C12.6062 11.4081 12.2934 11.2586 12.2934 11.2586C12.2934 11.2586 12.6175 11.215 12.8319 11.4816C12.7695 11.0642 12.1425 11.0069 12.0852 11.0169C12.1899 10.9197 12.59 11.0343 12.6561 10.835C12.332 11.0281 11.7487 10.7253 11.4009 11.1352C11.887 10.9147 12.0989 11.296 12.0989 11.296C12.0989 11.296 11.6589 11.2773 11.4046 11.8629C11.7761 11.5825 11.9817 11.7258 11.9817 11.7258C11.9817 11.7258 11.7898 11.9974 11.7511 12.1121C12.5526 11.6947 12.7658 12.4846 12.7658 12.4846C12.7658 12.4846 12.3781 12.3812 12.2111 12.8048H12.2099Z" fill="#EFDA30"/>
<path fill-rule="evenodd" clip-rule="evenodd" d="M14.1533 6.90747C14.1533 6.90747 13.7058 6.91744 13.5076 7.36598C13.1411 8.19829 12.6762 8.30046 12.6762 8.30046C12.6762 8.30046 12.842 8.33285 13.0688 8.18957C12.7609 8.72657 12.392 9.03931 12.1788 9.11905C11.9769 9.1826 12.0405 9.058 11.8311 9.12528C12.033 9.17387 12.0405 9.50032 12.6201 9.00068C12.5141 9.36824 12.2486 9.47415 12.2411 9.83922C12.3857 9.60871 12.6089 9.60124 12.8108 9.49284C12.7522 10.4485 12.3197 10.5444 12.2536 10.5831C12.8432 10.5855 12.913 10.0847 12.913 10.0847C12.913 10.0847 12.8345 10.1868 12.7422 10.1781C12.9205 10.0361 12.7884 9.35205 12.9155 9.25361C12.8469 9.21499 12.6837 9.42431 12.6837 9.42431C12.6837 9.42431 12.6699 9.33709 12.7746 9.24614C12.6924 9.22247 12.65 9.43179 12.4443 9.5053C12.569 9.41684 12.6488 8.90973 13.0763 8.62814C13.0564 8.53594 12.7335 8.89727 12.6313 8.82002C12.756 8.81628 13.2097 8.0089 13.4365 7.93165C13.3867 7.87309 13.2134 8.01388 13.1872 7.9765C13.7519 7.47438 13.6709 7.06072 14.2393 6.97226C14.258 6.93239 14.157 6.90747 14.157 6.90747H14.1533Z" fill="#EFDA30"/>
<path fill-rule="evenodd" clip-rule="evenodd" d="M11.5031 24.1679C11.5492 24.1828 12.1612 24.4557 12.236 24.4806C12.3108 24.5043 12.4342 24.5242 12.4342 24.5242C12.4342 24.5242 12.6536 24.6189 12.7795 24.9503C12.8081 25.0363 12.7882 25.3702 12.7982 25.4064C12.8293 25.5135 12.7134 25.8723 12.7134 25.8723C12.7134 25.8723 12.7383 26.0069 12.6449 26.0954C12.585 26.0842 12.5352 26.0268 12.5352 26.0268C12.5352 26.0268 12.6262 25.9683 12.6299 25.8225C12.6897 25.7154 12.7508 25.4948 12.7209 25.3291C12.7184 25.2307 12.6611 25.0587 12.6611 25.0587C12.6611 25.0587 12.3781 24.9852 12.15 24.6712C12.0353 24.5566 11.5679 24.3361 11.5479 24.3822C11.528 24.4295 11.801 24.6077 11.7748 24.6438C11.7486 24.68 11.3473 24.5516 11.3036 24.3971C11.26 24.2426 11.4569 24.1542 11.5043 24.1691L11.5031 24.1679Z" fill="#EFDA30"/>
<path fill-rule="evenodd" clip-rule="evenodd" d="M24.4243 13.4988L25.9301 12.7412C25.9338 12.132 25.9388 11.3084 25.945 10.4512L24.438 11.4118L24.4243 13.4988Z" fill="#FFED00"/>
<path fill-rule="evenodd" clip-rule="evenodd" d="M24.2212 16.6125L25.793 16.2598C25.8566 15.597 25.8952 14.9329 25.9127 14.2688L24.3882 14.7846C24.3558 15.3951 24.2997 16.0044 24.2212 16.6125Z" fill="#FFED00"/>
<path fill-rule="evenodd" clip-rule="evenodd" d="M23.886 18.5635C23.8822 18.5822 23.8785 18.6009 23.8735 18.6196C23.8149 18.8887 23.7538 19.1579 23.6865 19.427L25.3032 19.4718C25.4304 18.8638 25.5401 18.2558 25.6273 17.6453L24.0405 17.7699C23.9932 18.0352 23.9408 18.2994 23.8847 18.5635H23.886Z" fill="#FFED00"/>
<path fill-rule="evenodd" clip-rule="evenodd" d="M23.4083 20.4361C23.2575 20.9444 23.0917 21.4515 22.9072 21.9549L24.5289 22.4134C24.7084 21.8477 24.8717 21.2808 25.0163 20.7114L23.4083 20.4348V20.4361Z" fill="#FFED00"/>
<path fill-rule="evenodd" clip-rule="evenodd" d="M22.3877 23.2708C22.3204 23.4303 22.2519 23.5885 22.1808 23.7468C22.0973 23.9337 22.0113 24.1156 21.9253 24.2963L23.5021 25.1971C23.7302 24.6576 23.9434 24.1156 24.1391 23.5711L22.5535 22.8696C22.4987 23.0029 22.4438 23.1375 22.3865 23.2708H22.3877Z" fill="#FFED00"/>
<path fill-rule="evenodd" clip-rule="evenodd" d="M21.4977 25.1647C21.3743 25.4039 21.2484 25.6381 21.1212 25.8661V25.8686H21.1187C20.9928 26.0966 20.8657 26.3184 20.7373 26.5365L22.2044 27.912C22.4774 27.4024 22.7429 26.8691 23.0022 26.3147L21.4989 25.1597V25.1634L21.4977 25.1647Z" fill="#FFED00"/>
<path fill-rule="evenodd" clip-rule="evenodd" d="M19.269 28.7618L20.5517 30.6644C20.892 30.1598 21.2285 29.6253 21.5601 29.0621L20.2014 27.4075C19.8923 27.8872 19.5819 28.3382 19.269 28.7618Z" fill="#FFED00"/>
<path fill-rule="evenodd" clip-rule="evenodd" d="M17.4104 30.997L18.3939 33.4802C18.8227 32.9881 19.2565 32.4535 19.6915 31.8729L18.5734 29.6626C18.1783 30.151 17.7894 30.5946 17.4092 30.9983L17.4104 30.997Z" fill="#FFED00"/>
<path fill-rule="evenodd" clip-rule="evenodd" d="M15.0132 33.2023L15.538 36.2998C16.0577 35.8624 16.6261 35.3478 17.222 34.7448L16.4853 31.9302C15.9468 32.4423 15.4482 32.8622 15.0132 33.2023Z" fill="#FFED00"/>
<path fill-rule="evenodd" clip-rule="evenodd" d="M13.3466 34.3373L12.8667 34.5753L12.3793 34.3261C12.3718 34.3223 12.2172 34.2364 11.9555 34.0657L11.8184 37.6017C12.3008 37.9356 12.6473 38.14 12.8043 38.2284C12.9751 38.1362 13.3727 37.9095 13.9262 37.5294L13.7591 34.0943C13.5049 34.2551 13.3565 34.3336 13.3478 34.3385L13.3466 34.3373Z" fill="#FFED00"/>
<path fill-rule="evenodd" clip-rule="evenodd" d="M8.49414 34.7437C9.09495 35.3642 9.66834 35.8963 10.1894 36.3411L10.6979 33.1452C10.2617 32.7938 9.76307 32.3615 9.22459 31.8369L8.49414 34.7437Z" fill="#FFED00"/>
<path fill-rule="evenodd" clip-rule="evenodd" d="M6.01611 31.7955C6.45114 32.3911 6.88616 32.9381 7.31371 33.4415L8.29844 30.8798C7.91951 30.4649 7.5306 30.0113 7.1392 29.5129L6.01611 31.7943V31.7955Z" fill="#FFED00"/>
<path fill-rule="evenodd" clip-rule="evenodd" d="M6.25404 28.3144C6.2341 28.2857 6.21416 28.2571 6.19421 28.2284C5.96984 27.9044 5.74797 27.5643 5.52734 27.2104L4.15869 28.9174C4.48652 29.493 4.82058 30.04 5.15838 30.5546L6.4485 28.5935C6.38368 28.5025 6.31886 28.4078 6.25404 28.3144Z" fill="#FFED00"/>
<path fill-rule="evenodd" clip-rule="evenodd" d="M4.25109 24.918L2.73535 26.1104C2.98964 26.6748 3.2514 27.218 3.51939 27.7376L4.99649 26.3209C4.7422 25.8749 4.49291 25.4076 4.25109 24.918Z" fill="#FFED00"/>
<path fill-rule="evenodd" clip-rule="evenodd" d="M3.64053 23.6023C3.56574 23.4279 3.49219 23.2534 3.42114 23.079C3.35259 22.912 3.28777 22.7463 3.2242 22.5781L1.62744 23.307C1.81691 23.859 2.02133 24.4097 2.24196 24.9592L3.82999 24.0259C3.76642 23.8851 3.70285 23.7468 3.64053 23.6023Z" fill="#FFED00"/>
<path fill-rule="evenodd" clip-rule="evenodd" d="M2.88246 21.6423C2.7977 21.3943 2.71668 21.1464 2.64064 20.8972C2.63566 20.8785 2.63067 20.861 2.62444 20.8436C2.54965 20.5969 2.47735 20.3514 2.41004 20.1047L0.787109 20.405C0.922977 20.9806 1.07879 21.555 1.24956 22.1269L2.88246 21.6423Z" fill="#FFED00"/>
<path fill-rule="evenodd" clip-rule="evenodd" d="M2.14941 19.0758C2.08958 18.8166 2.03473 18.5562 1.98363 18.2945C1.9774 18.2621 1.97116 18.2298 1.96493 18.1974C1.91507 17.9345 1.8677 17.6716 1.82532 17.4074L0.226074 17.3015C0.303357 17.9158 0.40183 18.5288 0.519 19.1406L2.14941 19.0745V19.0758Z" fill="#FFED00"/>
<path fill-rule="evenodd" clip-rule="evenodd" d="M1.54359 14.4069L0.00292969 13.906C0.00791566 14.5713 0.0328455 15.2354 0.0839517 15.8995L1.66949 16.236C1.60343 15.6267 1.56104 15.0174 1.54235 14.4069H1.54359Z" fill="#FFED00"/>
<path fill-rule="evenodd" clip-rule="evenodd" d="M1.5462 10.9596L0.0242352 10.0139C0.0192493 10.8462 0.0130168 11.6636 0.00927734 12.3003L1.53374 13.0428L1.54745 10.9584L1.5462 10.9596Z" fill="#FFED00"/>
<path fill-rule="evenodd" clip-rule="evenodd" d="M25.9637 6.22237L25.9799 4.29362L25.9936 2.18546L13.045 0.190674L0.0715229 1.98237L0.0391141 6.86529L0.0441 6.86279C0.0416071 7.16183 0.0403606 7.52315 0.0366211 7.92186L1.55734 9.17904L1.57853 5.97567L1.74556 5.89219C3.75366 4.90788 7.6128 3.47627 13.0488 3.51864C18.663 3.56224 22.5508 5.07982 24.4704 6.05043H24.4729V6.05167L24.4492 9.71729L25.9587 8.44018C25.9662 7.26275 25.9724 6.32828 25.9736 6.22735C25.9711 6.22611 25.9674 6.22362 25.9649 6.22237H25.9637Z" fill="#FFED00"/>
<path fill-rule="evenodd" clip-rule="evenodd" d="M24.3085 5.96931L24.301 7.09691L24.2586 13.6781C24.2362 17.0646 23.4883 20.425 22.0324 23.6682C18.6519 31.2013 13.5251 34.0508 13.2882 34.1679L13.2135 34.2053L12.8669 34.376L12.5216 34.2003L12.4518 34.1642C12.3995 34.138 7.11686 31.2162 3.78873 23.5249C2.37645 20.2592 1.67218 16.8877 1.69462 13.5024L1.737 6.92123L1.74448 5.89331L1.57745 5.97679L1.52884 13.5024C1.5064 16.9151 2.2169 20.3141 3.63915 23.6034C6.99346 31.3545 12.3297 34.3025 12.3783 34.3274L12.8657 34.5766L13.3468 34.3386C13.4004 34.3124 18.7105 31.4804 22.1807 23.7479C23.6466 20.481 24.4007 17.0945 24.4232 13.6793L24.473 6.05155L24.3085 5.96931Z" fill="#FFED00"/>
<path fill-rule="evenodd" clip-rule="evenodd" d="M13.0723 0.254176L25.9984 2.24647L25.9997 1.99852L13.0287 0L0.0315199 1.79543L0.0302734 2.05584L13.0723 0.254176Z" fill="#000003"/>
<path d="M3.05683 4.58271L3.58908 4.36591L3.24256 3.51492L3.42205 3.44141L3.83963 4.46559L2.23789 5.11722L1.82031 4.0918L1.99981 4.01829L2.34633 4.86928L2.87734 4.65373L2.53081 3.80273L2.70906 3.73047L3.05559 4.58146L3.05683 4.58271Z" fill="black"/>
<path d="M3.82972 3.30431L4.10893 4.13661L4.66611 3.02397L4.8506 2.96167L5.20335 4.01077L5.01887 4.07307L4.73966 3.24077L4.18248 4.35341L3.998 4.41571L3.64648 3.36661L3.83097 3.30431H3.82972Z" fill="black"/>
<path d="M6.04344 2.67374C6.12072 2.68496 6.18554 2.71112 6.23789 2.75349C6.29024 2.79585 6.32639 2.85316 6.34634 2.92294V2.92917C6.38124 3.04753 6.37251 3.14596 6.32265 3.22571C6.27279 3.30545 6.1818 3.36401 6.04718 3.40014L5.45385 3.56461L5.54983 3.90974L5.36036 3.96207L5.06494 2.89553L5.79414 2.69368C5.88389 2.66876 5.96615 2.66253 6.04344 2.6725V2.67374ZM6.07834 3.20951C6.11324 3.19206 6.14066 3.1659 6.15936 3.13101C6.17806 3.09613 6.17931 3.04753 6.16185 2.98648C6.1444 2.92294 6.11823 2.87933 6.08333 2.8569C6.04842 2.83447 6.01227 2.82451 5.97363 2.82824C5.93499 2.83198 5.88638 2.84195 5.82779 2.85815L5.76547 2.87559C5.73805 2.88307 5.68943 2.89677 5.62212 2.91671C5.55481 2.9354 5.44512 2.96655 5.29554 3.00766L5.40773 3.40762L5.93624 3.26059H5.93749C5.99482 3.2444 6.04094 3.2282 6.07709 3.21075L6.07834 3.20951Z" fill="black"/>
<path d="M6.90342 2.93921L7.75602 3.36159L7.46559 3.42638L6.75758 3.06007L6.87101 3.56094L6.68154 3.60331L6.43848 2.5243L6.62794 2.48194L6.72143 2.89934L7.1951 2.35485L7.48927 2.28882L6.90342 2.94046V2.93921Z" fill="black"/>
<path d="M9.16591 3.11351L8.95899 3.14964L8.77825 2.92039L8.05529 3.04623L7.9618 3.32283L7.75488 3.35896L8.15625 2.16658L8.38436 2.12671L9.16467 3.11476L9.16591 3.11351ZM8.30209 2.3161L8.12135 2.84937L8.64986 2.75717L8.30085 2.31485L8.30209 2.3161Z" fill="black"/>
<path d="M9.91265 1.90649L9.93508 2.07719L9.42652 2.14572L9.55116 3.07147L9.35796 3.09763L9.23331 2.17188L8.71726 2.24041L8.69482 2.06972L9.91265 1.90649ZM8.71851 2.23543L8.69607 2.06972L9.91389 1.90649L8.71851 2.23543Z" fill="black"/>
<path d="M10.3063 1.86891L10.3761 2.74357L11.1863 1.79913L11.3795 1.78418L11.468 2.88686L11.2748 2.90181L11.205 2.02714L10.3948 2.97158L10.2003 2.98653L10.1118 1.88386L10.3063 1.86891Z" fill="black"/>
<path d="M13.0888 2.17661C13.1811 2.20402 13.2422 2.2414 13.2721 2.28874C13.302 2.33609 13.3169 2.39839 13.3169 2.47439V2.47938C13.3169 2.54167 13.3057 2.59899 13.2833 2.65132C13.2608 2.70365 13.206 2.75224 13.12 2.7946C13.034 2.83697 12.9044 2.85939 12.7323 2.86064L12.154 2.86438L12.1465 1.75796L13.2397 1.75049V1.92243L12.3422 1.92866V2.14047L12.6812 2.13798C12.8607 2.13674 12.9966 2.1492 13.0876 2.17661H13.0888ZM13.0427 2.63761C13.0963 2.60148 13.1225 2.54915 13.1212 2.47813C13.1212 2.43078 13.11 2.39465 13.0863 2.36973C13.0639 2.34357 13.0278 2.32612 12.9804 2.31615C12.9318 2.30619 12.8657 2.3012 12.7809 2.30245H12.7797L12.3447 2.30494L12.3472 2.69368C12.5678 2.69243 12.7012 2.69243 12.7498 2.69368H12.7847C12.9044 2.69368 12.9904 2.67375 13.044 2.63886L13.0427 2.63761Z" fill="black"/>
<path d="M14.6465 1.79674L14.0531 2.71252C14.0232 2.7661 13.9684 2.80597 13.8886 2.83338C13.8088 2.85955 13.7191 2.872 13.6181 2.86702C13.5982 2.86702 13.5832 2.86453 13.572 2.86328L13.5782 2.69383C13.6942 2.69882 13.754 2.68137 13.7552 2.6415C13.7552 2.62904 13.7515 2.61658 13.7428 2.60412L13.3252 1.74316L13.5359 1.75189L13.9285 2.56176L14.4346 1.78802L14.6452 1.79674H14.6465Z" fill="black"/>
<path d="M15.104 2.34607L15.7871 3.00892L15.4905 2.98275L14.9283 2.41833L14.8822 2.92918L14.689 2.91173L14.7874 1.8103L14.9806 1.82775L14.9432 2.25386L15.5603 1.88008L15.8619 1.90624L15.104 2.34731V2.34607Z" fill="black"/>
<path d="M17.419 2.11949L17.2632 3.21469L17.0713 3.18728L17.1822 2.40731L16.6898 3.13246L16.4817 3.10256L16.1863 2.25032L16.0728 3.044L15.8809 3.01659L16.0367 1.92139L16.2822 1.95627L16.6126 2.90819L17.1722 2.08336L17.419 2.11825V2.11949Z" fill="black"/>
<path d="M18.4845 2.95308L17.713 2.79982L17.6494 3.12128L18.5456 3.29198L18.512 3.46018L17.4263 3.24588L17.6407 2.16064L18.7264 2.37495L18.694 2.5444L17.7977 2.36747L17.7454 2.63162L18.517 2.78487L18.4833 2.95308H18.4845Z" fill="black"/>
<path d="M19.1492 2.99902L19.7226 3.75781L19.4334 3.68679L18.9635 3.04263L18.8413 3.54102L18.6519 3.49492L18.9174 2.4209L19.1056 2.467L19.0034 2.8819L19.6702 2.6053L19.9632 2.67757L19.148 2.99902H19.1492Z" fill="black"/>
<path d="M20.3185 2.77726L20.0667 3.61828L21.1636 3.03019L21.3506 3.08626L21.0328 4.14657L20.847 4.0905L21.0988 3.24948L20.0019 3.83757L19.8149 3.7815L20.1328 2.72119L20.3185 2.77726Z" fill="black"/>
<path d="M22.4908 3.53852C22.5481 3.59209 22.5855 3.65065 22.6042 3.71669C22.6229 3.78272 22.6192 3.84876 22.5955 3.91729L22.593 3.92227C22.5519 4.03815 22.4883 4.11415 22.4023 4.15028C22.3163 4.18642 22.2078 4.18143 22.0757 4.13409L21.4948 3.92601L21.3739 4.26367L21.1895 4.19763L21.5622 3.15601L22.2751 3.41018C22.3624 3.44133 22.4347 3.48369 22.4908 3.53602V3.53852ZM22.2116 3.99578C22.2502 4.00201 22.2876 3.99578 22.3225 3.97709C22.3587 3.9584 22.3861 3.91978 22.4073 3.86122C22.4297 3.79892 22.4335 3.74908 22.4172 3.71046C22.4023 3.67183 22.3774 3.64318 22.3449 3.62324C22.3113 3.60331 22.2664 3.58337 22.2091 3.56344L22.148 3.54225C22.1206 3.53229 22.0745 3.51609 22.0072 3.49242C21.9411 3.46874 21.8339 3.43136 21.688 3.37903L21.5497 3.77026L22.067 3.95467H22.0682C22.1243 3.97585 22.1717 3.98831 22.2103 3.99454L22.2116 3.99578Z" fill="black"/>
<path d="M23.0807 3.71563L22.7416 4.5255L23.8946 4.05577L24.0741 4.13053L23.6466 5.15097L23.4671 5.07622L23.8061 4.26634L22.6531 4.73607L22.4736 4.66131L22.9012 3.64087L23.0807 3.71563Z" fill="black"/>
<path d="M24.0408 3.70577L23.2671 3.42627L23.2188 3.55985L23.9925 3.83935L24.0408 3.70577Z" fill="black"/>
</svg>
