<svg width="107" height="20" viewBox="0 0 107 20" fill="none" xmlns="http://www.w3.org/2000/svg">
<path fill-rule="evenodd" clip-rule="evenodd" d="M16.6201 8.58853C16.4663 8.75771 16.2214 8.95206 15.6825 8.94904L5.08185 8.87553L5.11222 4.779L15.6874 4.85151C16.2615 4.85554 16.5006 5.0519 16.6446 5.22209C16.7906 5.39429 17.0345 5.84442 17.0257 6.92193C17.0179 7.99037 16.768 8.4254 16.6201 8.58853ZM52.4968 14.682L59.302 14.7293L59.8281 14.2338L53.0297 14.1875L52.4968 14.682ZM61.3251 12.9227L54.0731 19.6526L48.9002 19.6173L50.3306 19.6274L53.7038 19.6506L53.4059 19.6486L54.0722 19.6536L54.5366 19.2165L47.6628 19.1692L48.2849 18.5912L48.2095 18.6617L55.0754 18.709L55.6015 18.2146L48.7434 18.1672L49.2901 17.6597L56.1413 17.707L56.6342 17.2438L49.7898 17.1965L49.4478 17.5137L50.3365 16.6889L57.173 16.7363L57.6981 16.2418L50.8694 16.1945L50.5589 16.4835L51.4161 15.687L58.238 15.7333L58.7631 15.2399L51.9491 15.1925L53.5764 13.682L60.2905 13.7283V13.8018L60.8597 13.2641L54.0761 13.2178L53.6842 13.5813L57.61 9.93591L52.1627 4.73268L33.0237 4.60076C31.8431 6.76282 30.6616 8.92387 29.48 11.0859L35.9893 11.1312L33.1481 5.74573L38.6552 5.784L46.0482 19.5992L40.4069 19.5599L38.326 15.7242L27.0268 15.6467L24.9145 19.4532C23.0324 19.4411 21.1504 19.428 19.2683 19.4149C23.9818 10.8946 27.209 5.0378 27.8399 3.83845C27.8801 3.76192 28.0163 3.5011 28.2269 3.17181C28.6884 2.45079 29.2508 1.57167 30.2511 0.926171C31.56 0.0812876 33.0031 0.0319442 33.7947 0.00475482C34.1298 -0.00632232 34.3826 0.00475475 34.4884 0.00978981C35.1036 0.0369792 39.5732 0.0722245 48.5132 0.140701C49.101 0.145736 50.1239 0.152786 51.4161 0.160842C52.9994 0.302831 54.1231 0.77512 54.7776 1.1175C56.0875 1.80127 57.0633 2.75994 57.8069 3.49003C58.0175 3.69848 58.0636 3.75286 58.4467 4.15163C59.1305 4.86258 60.0926 5.83838 61.3153 7.00551L61.3202 7.00148V7.00853L61.8473 6.50099H61.8404L62.3558 6.00655H62.3616L69.1933 6.05388L70.7844 4.57458L63.8988 4.52725H63.8949L64.4093 4.0318H64.4132L64.9413 3.52426H64.9373L65.4507 3.03083H65.4527L72.3931 3.07816L71.8621 3.57159L64.9403 3.52426L64.4122 4.0318L71.3154 4.07913L71.2595 4.13149L70.8 4.55847L71.1939 4.19292L70.7844 4.57458L70.2377 5.08211L63.3708 5.03478H63.3659L62.8829 5.49902H62.8887L62.6634 5.71653L62.8897 5.49902L69.74 5.54635L69.7645 5.52318L69.1933 6.05388L68.6603 6.54832L68.1763 6.99846L68.1136 7.05686L64.9501 9.99835L70.3925 15.1915C80.8912 15.263 91.388 15.3355 101.887 15.408L101.998 0.499198C103.666 0.511282 105.333 0.522359 107 0.534443C106.981 3.27855 106.96 6.02266 106.939 8.76778C106.929 10.0819 106.921 11.3961 106.913 12.7112C106.907 13.3718 106.897 14.0334 106.897 14.694C106.893 15.0012 106.895 15.4372 106.885 16.0434C106.879 16.6144 106.879 16.7524 106.867 16.989C106.837 17.5439 106.826 18.7171 106.082 19.2911C105.124 20.0282 104.155 19.9748 103.763 20L101.05 19.9587C97.9023 19.9194 94.194 19.9114 94.194 19.9114C88.5204 19.8983 78.7015 19.8056 76.7421 19.8127H76.7107C76.5197 19.8137 75.6458 19.8187 74.4926 19.8097C73.1416 19.7996 72.4656 19.7946 72.0678 19.7694C71.3761 19.7271 69.6371 19.6194 68.0117 18.8772C67.2955 18.5499 66.8253 18.2015 64.8786 16.3737C63.9302 15.4846 62.7153 14.3204 61.3192 12.9267L61.3251 12.9227ZM65.9837 2.52027H65.9817L66.4971 2.02482H66.499L67.0261 1.51729H67.0251L67.5082 1.05306L68.0362 0.544513L75.0668 0.593857L75.3685 0.3129L68.3282 0.264564L67.5091 1.05306L74.521 1.10139L74.3996 1.21317L74.0214 1.56462L67.0271 1.51628L66.499 2.02382L73.4757 2.07215L73.1818 2.34606L72.6743 2.81734L73.2454 2.28564L72.9437 2.5666L65.9847 2.51826L65.9837 2.52027ZM61.1135 12.7515H61.1889L61.3261 12.7525L61.1125 12.7515H61.1135ZM22.0282 6.95717C22.0439 4.81425 21.4972 3.15469 20.4009 2.02382C19.2889 0.876828 17.7576 0.289739 15.852 0.276648L0.14402 0.168898L0 19.6546L5.00347 19.6888L5.04952 13.4534L15.6512 13.5269C17.5861 13.54 19.1478 12.9811 20.2931 11.8664C21.4296 10.7586 22.0145 9.10714 22.0302 6.95717H22.0282ZM94.4507 0.444819L89.4472 0.410581L89.3463 14.1865L94.3478 14.2208L94.4507 0.444819ZM81.8945 0.357209L76.892 0.322971L76.7901 14.0989L81.7926 14.1331L81.8945 0.357209Z" fill="#636363"/>
</svg>
